<svg xmlns="http://www.w3.org/2000/svg" viewBox="0 0 500 500"><g id="freepik--background-complete--inject-35"><path d="M61.78,55V245.79H196.86V55ZM192.85,241.77H65.8V59H192.85Z" style="fill:#ebebeb"></path><rect x="65.8" y="59.04" width="127.05" height="182.74" style="fill:#fff"></rect><rect x="127.32" y="60.08" width="4.01" height="183.7" style="fill:#ebebeb"></rect><rect x="58.15" y="63.13" width="142.35" height="5.59" style="fill:#ebebeb"></rect><rect x="58.15" y="69.41" width="142.35" height="5.59" style="fill:#ebebeb"></rect><rect x="58.15" y="75.7" width="142.35" height="5.59" style="fill:#ebebeb"></rect><rect x="58.15" y="81.98" width="142.35" height="5.59" style="fill:#ebebeb"></rect><rect x="58.15" y="88.27" width="142.35" height="5.59" style="fill:#ebebeb"></rect><rect x="58.15" y="94.55" width="142.35" height="5.59" style="fill:#ebebeb"></rect><rect x="187.58" y="62" width="1" height="90.67" style="fill:#263238"></rect><polygon points="189.86 157.34 186.3 157.34 187.19 152.22 188.97 152.22 189.86 157.34" style="fill:#263238"></polygon><rect x="191.19" y="62" width="1" height="118.09" style="fill:#263238"></rect><polygon points="193.47 183.85 189.91 183.85 190.81 178.74 192.58 178.74 193.47 183.85" style="fill:#263238"></polygon><rect x="51.92" y="54.24" width="154.8" height="11.69" style="fill:#dbdbdb"></rect><rect x="343.75" y="94.44" width="90.47" height="132.76" style="fill:#ebebeb"></rect><rect x="347" y="97.32" width="83.97" height="127.01" style="fill:#fff"></rect><rect x="358.65" y="108.64" width="60.67" height="104.36" style="fill:#ebebeb"></rect><rect x="434.22" y="94.44" width="2.09" height="132.76" style="fill:#dbdbdb"></rect></g><g id="freepik--serum-bag--inject-35"><path d="M239.36,448.1a3.36,3.36,0,1,1-3.36-3.36A3.35,3.35,0,0,1,239.36,448.1Z" style="fill:#263238"></path><path d="M237.75,448.1a1.75,1.75,0,1,1-1.75-1.75A1.74,1.74,0,0,1,237.75,448.1Z" style="fill:#ebebeb"></path><path d="M250.06,448.1a3.36,3.36,0,1,1-3.35-3.36A3.35,3.35,0,0,1,250.06,448.1Z" style="fill:#263238"></path><path d="M248.45,448.1a1.75,1.75,0,1,1-1.74-1.75A1.74,1.74,0,0,1,248.45,448.1Z" style="fill:#ebebeb"></path><path d="M287.3,448.1a3.36,3.36,0,1,1-3.36-3.36A3.35,3.35,0,0,1,287.3,448.1Z" style="fill:#263238"></path><path d="M285.69,448.1a1.75,1.75,0,1,1-1.75-1.75A1.74,1.74,0,0,1,285.69,448.1Z" style="fill:#ebebeb"></path><path d="M298,448.1a3.36,3.36,0,1,1-3.36-3.36A3.36,3.36,0,0,1,298,448.1Z" style="fill:#263238"></path><path d="M296.39,448.1a1.74,1.74,0,1,1-1.74-1.75A1.74,1.74,0,0,1,296.39,448.1Z" style="fill:#ebebeb"></path><path d="M290.09,443.25h7.58v-4.89a6.12,6.12,0,0,0-6.11-6.11h-9.49Z" style="fill:#c7c7c7"></path><rect x="263.1" y="97.18" width="4.45" height="335.07" style="fill:#dbdbdb"></rect><polygon points="267.55 100.75 263.1 98.97 263.1 97.18 267.55 97.18 267.55 100.75" style="fill:#c7c7c7"></polygon><path d="M239,432.25h44.43a6.7,6.7,0,0,1,6.7,6.7v4.29a0,0,0,0,1,0,0H232.85a0,0,0,0,1,0,0v-4.88A6.11,6.11,0,0,1,239,432.25Z" style="fill:#dbdbdb"></path><path d="M236,449.12h0a1.77,1.77,0,0,1-1.77-1.77v-4.1h3.55v4.1A1.78,1.78,0,0,1,236,449.12Z" style="fill:#dbdbdb"></path><path d="M284,449.12h0a1.77,1.77,0,0,1-1.77-1.77v-4.1h3.54v4.1A1.77,1.77,0,0,1,284,449.12Z" style="fill:#dbdbdb"></path><path d="M246.71,449.12h0a1.78,1.78,0,0,1-1.78-1.77v-4.1h3.55v4.1A1.77,1.77,0,0,1,246.71,449.12Z" style="fill:#dbdbdb"></path><path d="M294.65,449.12h0a1.77,1.77,0,0,1-1.77-1.77v-4.1h3.55v4.1A1.78,1.78,0,0,1,294.65,449.12Z" style="fill:#dbdbdb"></path><path d="M234.06,233.09a10.62,10.62,0,0,1-10.61-10.61V183.15h.75v39.33a9.86,9.86,0,0,0,19.72,0V115.72a2.39,2.39,0,0,1,2.39-2.39h1.95a2.39,2.39,0,0,1,2.39,2.39h-.75a1.64,1.64,0,0,0-1.64-1.64h-1.95a1.64,1.64,0,0,0-1.64,1.64V222.48A10.62,10.62,0,0,1,234.06,233.09Z" style="fill:#a6a6a6"></path><path d="M307.48,130a5.58,5.58,0,0,1-5.58-5.58v-6.8H228.75v6.8a5.58,5.58,0,1,1-11.15,0v-5.52h2v5.52a3.58,3.58,0,1,0,7.15,0v-8.8H303.9v8.8a3.58,3.58,0,1,0,7.15,0v-5.52h2v5.52A5.58,5.58,0,0,1,307.48,130Z" style="fill:#dbdbdb"></path><path d="M271,116.66a5.69,5.69,0,1,1-5.69-5.69A5.69,5.69,0,0,1,271,116.66Z" style="fill:#c7c7c7"></path><rect x="207.95" y="129.59" width="31.75" height="48.4" rx="2.86" style="fill:#dbdbdb"></rect><path d="M211.16,147.2h25.33a0,0,0,0,1,0,0v25.54a1.71,1.71,0,0,1-1.71,1.71H212.86a1.71,1.71,0,0,1-1.71-1.71V147.2A0,0,0,0,1,211.16,147.2Z" style="fill:#DDA15E"></path><path d="M211.16,147.2h25.33a0,0,0,0,1,0,0v25.54a1.71,1.71,0,0,1-1.71,1.71H212.86a1.71,1.71,0,0,1-1.71-1.71V147.2A0,0,0,0,1,211.16,147.2Z" style="fill:#fff;opacity:0.7000000000000001"></path><rect x="222.31" y="177.99" width="3.02" height="5.16" style="fill:#dbdbdb"></rect><path d="M226.55,129.59a2.73,2.73,0,1,1-2.73-2.73A2.73,2.73,0,0,1,226.55,129.59Z" style="fill:#dbdbdb"></path><path d="M225,129.59a1.15,1.15,0,1,1-1.15-1.15A1.14,1.14,0,0,1,225,129.59Z" style="fill:#fff"></path></g><g id="freepik--Floor--inject-35"><path d="M51.55,451.7c127.14-.61,269.76-.62,396.9,0-127.14.62-269.76.61-396.9,0Z" style="fill:#263238"></path></g><g id="freepik--Bed--inject-35"><path d="M183.06,261.75H42.9a7.31,7.31,0,0,0-7.32,7.31v62.56a6.73,6.73,0,0,0,6.73,6.73H183.66a6.72,6.72,0,0,0,6.72-6.73V269.06A7.31,7.31,0,0,0,183.06,261.75Zm-95.43,15a4.58,4.58,0,0,1-4.58,4.58H57.63a4.58,4.58,0,0,1-4.58-4.58v-1.67a4.58,4.58,0,0,1,4.58-4.58H83.05a4.58,4.58,0,0,1,4.58,4.58Zm97.82,0a4.58,4.58,0,0,1-4.58,4.58H155.45a4.58,4.58,0,0,1-4.58-4.58v-1.67a4.58,4.58,0,0,1,4.58-4.58h25.42a4.58,4.58,0,0,1,4.58,4.58Z" style="fill:#c7c7c7"></path><path d="M188.87,261.75H48.71a7.31,7.31,0,0,0-7.32,7.31v62.56a6.73,6.73,0,0,0,6.73,6.73H189.47a6.72,6.72,0,0,0,6.72-6.73V269.06A7.31,7.31,0,0,0,188.87,261.75Zm-101.24,15a4.58,4.58,0,0,1-4.58,4.58H57.63a4.58,4.58,0,0,1-4.58-4.58v-1.67a4.58,4.58,0,0,1,4.58-4.58H83.05a4.58,4.58,0,0,1,4.58,4.58Zm93.24,4.58H155.45a4.58,4.58,0,0,1-4.58-4.58v-1.67a4.58,4.58,0,0,1,4.58-4.58h25.42a4.58,4.58,0,0,1,4.58,4.58v1.67A4.58,4.58,0,0,1,180.87,281.36Z" style="fill:#ebebeb"></path><path d="M87.63,275.11v1.67a4.58,4.58,0,0,1-4.58,4.58H78.31a4.59,4.59,0,0,0,4.59-4.58v-1.67a4.59,4.59,0,0,0-4.59-4.58h4.74A4.58,4.58,0,0,1,87.63,275.11Z" style="fill:#c7c7c7"></path><path d="M185.45,275.11v1.67a4.58,4.58,0,0,1-4.58,4.58h-4.74a4.59,4.59,0,0,0,4.59-4.58v-1.67a4.59,4.59,0,0,0-4.59-4.58h4.74A4.58,4.58,0,0,1,185.45,275.11Z" style="fill:#c7c7c7"></path><path d="M247.24,329l10.52-27.66c1.5-3.92,1.2-8.32-.72-10.79l-63.72-83.05c-2.21-2.85-5.53-4.39-10.11-3.8l-13.07,26.57c-2.13,2.84-2.44,7.31-.66,9.6l66.92,91.28C238.39,333.73,246.11,331.46,247.24,329Zm-15.42-42.32L184.36,225.5c-1-1.26-.8-3.73.38-5.31l2.67-3.57c1-1.36,2.43-1.56,3.27-.47l46.58,60a4.53,4.53,0,0,1,.28,4.14L235.75,285C234.89,287.29,232.93,288.11,231.82,286.69Z" style="fill:#a6a6a6"></path><path d="M242.45,327.26,253,299.6c1.49-3.92,1.19-8.32-.73-10.8L187.6,205.45c-2.22-2.85-5.91-2.32-8.57,1.22l-15.43,20.6c-2.13,2.84-2.44,7.32-.67,9.6l72.44,93.39C237.36,332.83,240.9,331.33,242.45,327.26Zm-14.84-40.57L180.15,225.5c-1-1.26-.81-3.73.37-5.31l2.68-3.57c1-1.36,2.43-1.56,3.27-.47l46.58,60a4.5,4.5,0,0,1,.27,4.14L231.54,285C230.68,287.29,228.72,288.11,227.61,286.69Z" style="fill:#c7c7c7"></path><path d="M182,227.9l-1.86-2.4c-1-1.26-.81-3.73.37-5.31l2.68-3.57c1-1.36,2.43-1.56,3.27-.47l1.86,2.4c-.85-1.1-2.25-.89-3.27.47l-2.68,3.56C181.2,224.16,181,226.64,182,227.9Z" style="fill:#a6a6a6"></path><polygon points="202.45 254.25 200.3 251.47 206.38 241.81 208.53 244.59 202.45 254.25" style="fill:#dbdbdb"></polygon><polygon points="202.45 254.25 204.1 256.37 210.18 246.72 208.53 244.59 202.45 254.25" style="fill:#a6a6a6"></polygon><rect x="104.59" y="288.69" width="355.18" height="43.56" style="fill:#ebebeb"></rect><polygon points="59.64 231.3 173.62 231.3 218.57 288.69 104.59 288.69 59.64 231.3" style="fill:#dbdbdb"></polygon><polygon points="59.64 231.3 104.59 288.69 104.59 332.25 59.64 274.86 59.64 231.3" style="fill:#ebebeb"></polygon><polygon points="50.63 262.95 104.59 332.25 96.76 332.25 50.63 273 50.63 262.95" style="fill:#a6a6a6"></polygon><rect x="133.17" y="288.69" width="326.59" height="43.56" style="fill:#DDA15E"></rect><rect x="129.32" y="288.69" width="18.57" height="43.56" style="fill:#DDA15E"></rect><rect x="129.32" y="288.69" width="18.57" height="43.56" style="opacity:0.1"></rect><rect x="321.09" y="289.11" width="138.68" height="43.14" style="opacity:0.1"></rect><path d="M115.26,329l10.52-27.66c1.49-3.92,1.2-8.32-.72-10.79L61.34,207.51c-2.21-2.85-5.53-4.39-10.11-3.8L38.16,230.28c-2.13,2.84-2.45,7.31-.67,9.6l66.93,91.28C106.41,333.73,114.12,331.46,115.26,329ZM99.84,286.69,52.38,225.5c-1-1.26-.81-3.73.37-5.31l2.68-3.57c1-1.36,2.43-1.56,3.27-.47l46.58,60a4.5,4.5,0,0,1,.27,4.14L103.77,285C102.91,287.29,100.94,288.11,99.84,286.69Z" style="fill:#a6a6a6"></path><path d="M110.47,327.26,121,299.6c1.5-3.92,1.2-8.32-.72-10.8L55.61,205.45c-2.21-2.85-5.9-2.32-8.56,1.22l-15.44,20.6c-2.12,2.84-2.44,7.32-.66,9.6l72.43,93.39C105.38,332.83,108.92,331.33,110.47,327.26ZM95.63,286.69,48.17,225.5c-1-1.26-.81-3.73.37-5.31l2.68-3.57c1-1.36,2.43-1.56,3.27-.47l46.57,60a4.5,4.5,0,0,1,.28,4.14L99.56,285C98.7,287.29,96.73,288.11,95.63,286.69Z" style="fill:#c7c7c7"></path><path d="M50,227.9l-1.86-2.4c-1-1.26-.81-3.73.37-5.31l2.68-3.57c1-1.36,2.43-1.56,3.27-.47l1.86,2.4c-.85-1.1-2.25-.89-3.28.47l-2.67,3.56C49.22,224.16,49.05,226.64,50,227.9Z" style="fill:#a6a6a6"></path><polygon points="70.47 254.25 68.31 251.47 74.4 241.81 76.55 244.59 70.47 254.25" style="fill:#dbdbdb"></polygon><polygon points="70.47 254.25 72.11 256.37 78.2 246.72 76.55 244.59 70.47 254.25" style="fill:#a6a6a6"></polygon><path d="M119.1,252.79h72.42a11.88,11.88,0,0,1,9.37,4.58l15.6,20a6.74,6.74,0,0,1-5.32,10.87H138.76a11.88,11.88,0,0,1-9.38-4.58l-15.59-20A6.73,6.73,0,0,1,119.1,252.79Z" style="fill:#ebebeb"></path><path d="M136.05,283.55h-.38a2.54,2.54,0,0,1-2-.95l-16.91-20.93a2.56,2.56,0,0,1,2-4.16h.37a2.57,2.57,0,0,1,2,.95L138,279.39A2.56,2.56,0,0,1,136.05,283.55Z" style="fill:#dbdbdb"></path><path d="M302.22,364.54H67A4.52,4.52,0,0,1,62.5,360v-3H302.22Z" style="fill:#a6a6a6"></path><path d="M306.75,357h146a0,0,0,0,1,0,0v7.54a0,0,0,0,1,0,0H302.22a0,0,0,0,1,0,0v-3A4.53,4.53,0,0,1,306.75,357Z" transform="translate(755 721.55) rotate(180)" style="fill:#c7c7c7"></path><rect x="41.5" y="332.25" width="267.53" height="24.75" style="fill:#c7c7c7"></rect><rect x="309.03" y="332.25" width="157.78" height="24.75" transform="translate(775.83 689.25) rotate(180)" style="fill:#dbdbdb"></rect><circle cx="169.24" cy="438.56" r="13.14" transform="translate(-290.83 535.06) rotate(-80.74)" style="fill:#263238"></circle><path d="M176.07,438.56a6.83,6.83,0,1,1-6.83-6.82A6.83,6.83,0,0,1,176.07,438.56Z" style="fill:#ebebeb"></path><rect x="157.91" y="364.53" width="8.9" height="63.93" style="fill:#dbdbdb"></rect><path d="M169.32,440.47h-1a3.22,3.22,0,0,1-2.6-1.33L158,428.46h8.9l5,6.92A3.21,3.21,0,0,1,169.32,440.47Z" style="fill:#dbdbdb"></path><rect x="217.07" y="253.69" width="8.9" height="271.11" transform="translate(610.76 167.73) rotate(90)" style="fill:#c7c7c7"></rect><rect x="397.3" y="351.83" width="8.9" height="74.84" transform="translate(790.99 -12.5) rotate(90)" style="fill:#dbdbdb"></rect><circle cx="88.4" cy="438.56" r="13.14" transform="translate(-358.68 454.99) rotate(-80.71)" style="fill:#263238"></circle><path d="M95.23,438.56a6.83,6.83,0,1,1-6.83-6.82A6.83,6.83,0,0,1,95.23,438.56Z" style="fill:#ebebeb"></path><rect x="77.06" y="364.53" width="8.9" height="63.93" style="fill:#dbdbdb"></rect><path d="M88.48,440.47h-1a3.23,3.23,0,0,1-2.6-1.33l-7.72-10.68h8.9l5,6.92A3.21,3.21,0,0,1,88.48,440.47Z" style="fill:#dbdbdb"></path><circle cx="368.3" cy="438.56" r="13.14" transform="translate(-128.06 724.23) rotate(-79.9)" style="fill:#263238"></circle><path d="M375.12,438.56a6.83,6.83,0,1,1-6.82-6.82A6.82,6.82,0,0,1,375.12,438.56Z" style="fill:#ebebeb"></path><rect x="356.96" y="364.53" width="8.9" height="63.93" style="fill:#dbdbdb"></rect><path d="M368.37,440.47h-1a3.22,3.22,0,0,1-2.6-1.33l-7.72-10.68H366l5,6.92A3.21,3.21,0,0,1,368.37,440.47Z" style="fill:#dbdbdb"></path><circle cx="449.14" cy="438.56" r="13.14" transform="translate(-55.95 811.32) rotate(-80.74)" style="fill:#263238"></circle><path d="M456,438.56a6.83,6.83,0,1,1-6.83-6.82A6.83,6.83,0,0,1,456,438.56Z" style="fill:#ebebeb"></path><rect x="437.8" y="364.53" width="8.9" height="63.93" style="fill:#dbdbdb"></rect><path d="M449.22,440.47h-1a3.23,3.23,0,0,1-2.6-1.33l-7.72-10.68h8.9l5,6.92A3.21,3.21,0,0,1,449.22,440.47Z" style="fill:#dbdbdb"></path><path d="M457.08,261.75H316.92a7.31,7.31,0,0,0-7.32,7.31v62.56a6.73,6.73,0,0,0,6.73,6.73H457.68a6.72,6.72,0,0,0,6.72-6.73V269.06A7.31,7.31,0,0,0,457.08,261.75Zm-95.43,15a4.58,4.58,0,0,1-4.58,4.58H331.65a4.58,4.58,0,0,1-4.58-4.58v-1.67a4.58,4.58,0,0,1,4.58-4.58h25.42a4.58,4.58,0,0,1,4.58,4.58Zm97.82,0a4.58,4.58,0,0,1-4.58,4.58H429.47a4.58,4.58,0,0,1-4.58-4.58v-1.67a4.58,4.58,0,0,1,4.58-4.58h25.42a4.58,4.58,0,0,1,4.58,4.58Z" style="fill:#c7c7c7"></path><path d="M462.89,261.75H322.73a7.31,7.31,0,0,0-7.32,7.31v62.56a6.73,6.73,0,0,0,6.73,6.73H463.49a6.72,6.72,0,0,0,6.72-6.73V269.06A7.31,7.31,0,0,0,462.89,261.75Zm-101.24,15a4.58,4.58,0,0,1-4.58,4.58H331.65a4.58,4.58,0,0,1-4.58-4.58v-1.67a4.58,4.58,0,0,1,4.58-4.58h25.42a4.58,4.58,0,0,1,4.58,4.58Zm93.24,4.58H429.47a4.58,4.58,0,0,1-4.58-4.58v-1.67a4.58,4.58,0,0,1,4.58-4.58h25.42a4.58,4.58,0,0,1,4.58,4.58v1.67A4.58,4.58,0,0,1,454.89,281.36Z" style="fill:#dbdbdb"></path><path d="M361.65,275.11v1.67a4.58,4.58,0,0,1-4.58,4.58h-4.74a4.59,4.59,0,0,0,4.59-4.58v-1.67a4.59,4.59,0,0,0-4.59-4.58h4.74A4.58,4.58,0,0,1,361.65,275.11Z" style="fill:#c7c7c7"></path><path d="M459.47,275.11v1.67a4.58,4.58,0,0,1-4.58,4.58h-4.74a4.59,4.59,0,0,0,4.59-4.58v-1.67a4.59,4.59,0,0,0-4.59-4.58h4.74A4.58,4.58,0,0,1,459.47,275.11Z" style="fill:#c7c7c7"></path><path d="M459.44,291.67v35.75c0,1.82-1.77,3.29-3.95,3.29L331,331h-.25l119.84-.32c2.19,0,4-1.47,4-3.29V291.67c0-1.9-1.78-3.46-4-3.57h4.59C457.51,288.09,459.44,289.69,459.44,291.67Z" style="fill:#37474f"></path><path d="M454.58,291.67v35.75c0,1.82-1.77,3.29-4,3.29L330.78,331a3.61,3.61,0,0,1-3.71-3.29V292c0-2,1.93-3.58,4.3-3.58l119.17-.32C452.8,288.21,454.58,289.77,454.58,291.67Z" style="fill:#455a64"></path><rect x="375.17" y="296.46" width="39.87" height="25.52" style="fill:#DDA15E"></rect><rect x="380.47" y="299.67" width="31.04" height="19.09" style="fill:#fff"></rect><rect x="375.17" y="296.46" width="1.78" height="25.52" style="opacity:0.1"></rect><rect x="409.74" y="299.67" width="1.78" height="19.09" style="fill:#DDA15E"></rect><rect x="409.74" y="299.67" width="1.78" height="19.09" style="opacity:0.1"></rect><rect x="384.17" y="302.93" width="11.73" height="0.61" style="fill:#263238"></rect><rect x="384.17" y="306.75" width="5.87" height="0.61" style="fill:#263238"></rect><rect x="391.89" y="306.75" width="10.65" height="0.61" style="fill:#263238"></rect><rect x="404.25" y="306.75" width="3.57" height="0.61" style="fill:#263238"></rect><rect x="384.17" y="310.58" width="10.29" height="0.61" style="fill:#263238"></rect><rect x="395.81" y="310.58" width="7.87" height="0.61" style="fill:#263238"></rect><rect x="384.17" y="314.4" width="11.73" height="0.61" style="fill:#263238"></rect></g><g id="freepik--Plant--inject-35"><path d="M61.49,376.53a61,61,0,0,1,1.95,11c-.1.18-.08.86,0,.68,0,.6,1,.49,1-.11,0-.39,0-.78,0-1.15,2.15-2.68,5.28-4.37,7.81-6.7a14.68,14.68,0,0,0,4.28-6.81c2.1-7.23.13-14.88,2.65-22.09,2.18-6.22,6.08-11.62,9.38-17.25,3.48-6,6-12.22,6.31-19.19.2-5.34-.43-12.46-4.5-16.46-4.31-4.25-9.66-1.06-13,2.72-9.58,11-14,24.87-15.8,39.07-1,7.86-2,15.76-1.77,23.69A64.12,64.12,0,0,0,61.49,376.53Z" style="fill:#DDA15E"></path><path d="M63.4,390.44a135.6,135.6,0,0,1,.26-22.26s0,0,0-.08c-.12-6-.6-12-.37-18a107.66,107.66,0,0,1,2.65-19.34c0-.08.13-.06.12,0a125.32,125.32,0,0,0-2.09,18.92q-.19,5.1.08,10.2c.06,1.1.16,2.22.23,3.33h0a119.15,119.15,0,0,1,17.9-47.37c.13-.2.48,0,.35.21a123.83,123.83,0,0,0-14.57,35.13c4.61-8.53,11.56-15.55,16.72-23.74,0,0,.1,0,.08,0-4.64,9.12-12.29,16.32-17.17,25.31q-1.28,5.49-2.06,11.08a124,124,0,0,0-1.11,15.39c2.8-5.24,5.71-10.25,8-15.79.06-.15.27-.05.22.1-2,5.75-4.57,12-8.24,16.87,0,3.64.08,7.29.3,10.93.57,9.71,2.23,19.3,3,29a.23.23,0,0,1-.45.05A223.39,223.39,0,0,1,63.4,390.44Z" style="fill:#263238"></path><path d="M73.72,315.5c0-.07.13,0,.11.05a154.18,154.18,0,0,0-4.06,14.91.19.19,0,0,1-.37-.06A53.19,53.19,0,0,1,73.72,315.5Z" style="fill:#263238"></path><path d="M28.65,336.07a75.48,75.48,0,0,0,4.08,8.39c3.2,5.8,6.53,11.12,7.13,17.88a41.48,41.48,0,0,0,1.29,9,26.51,26.51,0,0,0,3.57,7c3.46,5.05,7.79,9.4,11,14.64A61.25,61.25,0,0,1,63,410.57c.08.33.62.24.54-.1a.14.14,0,0,1,0-.07.15.15,0,0,0,0-.07c.51-14.5-.65-29.1-5.07-43a149,149,0,0,0-7-17.88A42.28,42.28,0,0,0,42,335.84c-2.69-2.43-8.54-7-12.38-4.6C27.78,332.41,27.92,334.26,28.65,336.07Z" style="fill:#DDA15E"></path><path d="M43.21,368.92A120.05,120.05,0,0,0,51.63,381c1.41,1.83,2.83,3.64,4.23,5.48.66.87,1.4,1.73,2,2.66l-1.14-4.57c-1.87-7.32-3.67-14.71-6.46-21.75a147,147,0,0,0-10.06-19.73c-.1-.16.17-.29.27-.12,3.07,5,6.17,10.06,8.75,15.37a80.66,80.66,0,0,1,3.71,9.12A140.5,140.5,0,0,0,48,348c0-.05.06-.1.09,0a66.56,66.56,0,0,1,5.12,20.28,0,0,0,0,1,0,0q.94,2.82,1.75,5.7c2.28,8.1,4.28,16.29,6.14,24.52a87.26,87.26,0,0,0-1.4-16.12.1.1,0,0,1,.19,0,50.9,50.9,0,0,1,1.4,17c.71,3.12,1.39,6.25,2.06,9.38,1.42,6.68,3.17,13.48,4,20.26a.14.14,0,0,1-.27,0c-1-3.66-1.6-7.45-2.41-11.15s-1.65-7.42-2.52-11.12c-1.26-5.39-2.58-10.77-3.92-16.14-.9-2-2.63-3.72-3.93-5.37-1.43-1.81-2.86-3.63-4.24-5.47a81.13,81.13,0,0,1-7-10.79C43,368.9,43.17,368.84,43.21,368.92Z" style="fill:#263238"></path><path d="M42.59,362.72a74.92,74.92,0,0,1,8.24,13.1c0,.06-.06.12-.1.06-2.77-4.35-5.5-8.72-8.26-13.08C42.42,362.73,42.54,362.66,42.59,362.72Z" style="fill:#263238"></path><path d="M104.28,349.81c-1.88,3.23-4,7.12-3.21,11,.51,2.46,2.31,4.45,2.63,7,.73,5.54-4.79,9.2-8.78,11.81-10,6.53-23.6,12.35-25.41,25.68-.06.47-.88.36-.82-.11a.24.24,0,0,1,0-.08s0,0,0-.08a51,51,0,0,1,.19-20.37c1.48-6.87,4.48-13,8-19.08,6-10.22,12.33-20.68,21.38-28.5,2.51-2.17,7.64-6.06,9.64-1.17S106.58,345.87,104.28,349.81Z" style="fill:#DDA15E"></path><path d="M95.17,371.47c-6.59,7.14-17.08,11.14-22.76,19.14a80.08,80.08,0,0,1,17.5-32.86.26.26,0,0,0-.37-.36,64.74,64.74,0,0,0-14.3,20.7,93.56,93.56,0,0,1,6.16-15.74.17.17,0,0,0-.29-.17,60,60,0,0,0-6.64,17.7C67,398,66.3,419.24,67.87,438.33a.22.22,0,0,0,.43,0c-.43-15.05-.19-30.36,3.42-45.05.07-.31.15-.61.23-.92,6.18-8.61,16.62-12.6,23.34-20.78C95.35,371.5,95.25,371.39,95.17,371.47Z" style="fill:#263238"></path><path d="M96.7,365.33c-3.46,3.18-6.87,6.43-10.34,9.61,0,0,0,.09,0,.06a50.54,50.54,0,0,0,10.5-9.46A.15.15,0,0,0,96.7,365.33Z" style="fill:#263238"></path><path d="M97.25,351.57a107.93,107.93,0,0,1-10.36,14.25.06.06,0,0,0,.09.09,50.32,50.32,0,0,0,10.46-14.23A.11.11,0,0,0,97.25,351.57Z" style="fill:#263238"></path><polygon points="81.66 451.8 51.32 451.8 55.41 410.98 76.99 410.98 81.66 451.8" style="fill:#455a64"></polygon><polygon points="77.75 417.62 54.74 417.62 55.41 410.98 76.99 410.98 77.75 417.62" style="fill:#263238"></polygon><rect x="52.27" y="406.46" width="28.44" height="6.52" style="fill:#455a64"></rect></g></svg>